<?xml version="1.0" encoding="UTF-8" standalone="no"?>
<svg
   viewBox="0 0 30 30"
   version="1.1"
   id="svg3"
   sodipodi:docname="favicon.svg"
   inkscape:version="1.3 (0e150ed, 2023-07-21)"
   xml:space="preserve"
   xmlns:inkscape="http://www.inkscape.org/namespaces/inkscape"
   xmlns:sodipodi="http://sodipodi.sourceforge.net/DTD/sodipodi-0.dtd"
   xmlns="http://www.w3.org/2000/svg"
   xmlns:svg="http://www.w3.org/2000/svg"><defs
     id="defs3" /><sodipodi:namedview
     id="namedview3"
     pagecolor="#ffffff"
     bordercolor="#000000"
     borderopacity="0.25"
     inkscape:showpageshadow="2"
     inkscape:pageopacity="0.0"
     inkscape:pagecheckerboard="0"
     inkscape:deskcolor="#d1d1d1"
     showgrid="false"
     inkscape:zoom="13.65622"
     inkscape:cx="0.91533379"
     inkscape:cy="12.814673"
     inkscape:window-width="1720"
     inkscape:window-height="923"
     inkscape:window-x="175"
     inkscape:window-y="46"
     inkscape:window-maximized="0"
     inkscape:current-layer="g3" /><!-- Square background with rounded corners --><rect
     x="0"
     y="0"
     width="30"
     height="30"
     rx="6"
     ry="6"
     fill="#2a5a8c"
     id="rect1"
     style="fill:#318472;fill-opacity:1" /><!-- Stylized playing cards --><g
     id="g3"
     transform="matrix(1.4130116,0,0,1.3349688,-4.5841873,-6.3595008)"><!-- Card 2 - middle card --><rect
       x="8.9752913"
       y="7.9752016"
       width="9.7692003"
       height="16.049597"
       rx="0.81409997"
       ry="1.0030998"
       fill="#ffffff"
       stroke="#000000"
       stroke-width="0.451836"
       id="rect2"
       style="fill:none;stroke:#ffffff;stroke-opacity:1;stroke-width:0.81620113;stroke-dasharray:none" /><!-- Heart symbol --><path
       d="m 11.398291,10.063192 c 0,-1.0264629 -0.929526,-1.5396944 -1.394289,-1.0264629 -0.4647635,0.5132315 -0.4647635,1.5396939 1.394289,3.0793899 1.859053,-1.539696 1.859053,-2.5661584 1.39429,-3.0793899 -0.464763,-0.5132315 -1.39429,0 -1.39429,1.0264629 z"
       fill="#d32f2f"
       id="path2"
       style="stroke-width:0.976794" /><!-- Checkmark --><path
       d="m 11.42295,15.937508 1.666299,2.034833 3.332599,-4.069666"
       fill="none"
       stroke="#2a5a8c"
       stroke-width="1.10482"
       stroke-linecap="round"
       stroke-linejoin="round"
       id="path3"
       style="stroke:#ffffff;stroke-opacity:1" /><path
       d="m 16.32149,21.913715 c 0,1.026463 -0.929526,1.539694 -1.394289,1.026463 -0.464764,-0.513232 -0.464764,-1.539694 1.394289,-3.07939 1.859053,1.539696 1.859053,2.566158 1.39429,3.07939 -0.464763,0.513231 -1.39429,0 -1.39429,-1.026463 z"
       fill="#d32f2f"
       id="path1"
       style="stroke-width:0.976794" /></g></svg>
